<?xml version="1.0" encoding="utf-8"?>
<!-- Generator: Adobe Illustrator 23.1.0, SVG Export Plug-In . SVG Version: 6.00 Build 0)  -->
<svg version="1.1" id="Layer_1" xmlns="http://www.w3.org/2000/svg" xmlns:xlink="http://www.w3.org/1999/xlink" x="0px" y="0px"
	 viewBox="0 0 44.31 54.05" style="enable-background:new 0 0 44.31 54.05;" xml:space="preserve">
<style type="text/css">
	.st0{fill:#001849;}
	.st1{fill:#00BDFF;}
</style>
<path class="st0" d="M0,38.51c0-10.86,8.64-16.74,29.04-18.9c-0.31-4.51-2.56-7.45-8.15-7.45c-4.33,0-8.64,1.82-13.64,4.66
	L1.81,6.79C8.35,2.79,15.72,0,23.83,0c13.18,0,20.48,7.53,20.48,23.33v29.48H31.85l-1.1-5.28h-0.38c-4.34,3.81-9.21,6.53-15,6.53
	C5.97,54.05,0,47.19,0,38.51z"/>
<path class="st1" d="M14.63,22.34c3.94-1.22,8.7-2.12,14.41-2.73v22.28l-7.2-3.46l-7.2,3.46V22.34z M29.04,19.61v-0.07h-0.01
	C29.03,19.56,29.03,19.59,29.04,19.61z"/>
</svg>
