<?xml version="1.0" encoding="utf-8"?>
<!-- Generator: Adobe Illustrator 23.1.0, SVG Export Plug-In . SVG Version: 6.00 Build 0)  -->
<svg version="1.1" id="Layer_1" xmlns="http://www.w3.org/2000/svg" xmlns:xlink="http://www.w3.org/1999/xlink" x="0px" y="0px"
	 viewBox="0 0 219.47 50.94" style="enable-background:new 0 0 219.47 50.94;" xml:space="preserve">
<style type="text/css">
	.st0{fill:#001849;}
	.st1{fill:#00BDFF;}
</style>
<path class="st0" d="M29.06,28.64V11.42h8.21v16.16c0,3.99,1.07,5.24,3.44,5.24c2.06,0,3.33-0.87,4.93-3.05V11.42h8.21v27.72h-6.7
	l-0.59-3.85h-0.2c-2.31,2.76-4.92,4.52-8.7,4.52C31.64,39.82,29.06,35.57,29.06,28.64z M57.91,43.91c0-2.3,1.38-4.16,3.93-5.58V38.1
	c-1.43-0.97-2.53-2.42-2.53-4.71c0-2,1.33-3.95,3.09-5.19v-0.22c-1.95-1.36-3.72-3.95-3.72-7.19c0-6.65,5.5-10.03,11.47-10.03
	c1.54,0,3.05,0.24,4.29,0.67h10.14v5.98h-4.46c0.52,0.83,0.94,2.2,0.94,3.65c0,6.38-4.85,9.32-10.91,9.32
	c-1.01,0-2.16-0.17-3.39-0.54c-0.68,0.59-0.97,1.08-0.97,2.06c0,1.37,1.12,2.03,4.15,2.03h4.5c6.8,0,10.59,2.08,10.59,7.05
	c0,5.76-6,9.95-15.52,9.95C63.06,50.94,57.91,48.84,57.91,43.91z M77.16,42.38c0-1.75-1.5-2.15-4.23-2.15h-2.88
	c-1.9,0-2.99-0.11-3.89-0.35c-1.02,0.87-1.5,1.72-1.5,2.72c0,2.1,2.43,3.18,6.15,3.18C74.52,45.78,77.16,44.3,77.16,42.38z
	 M73.93,20.79c0-2.95-1.6-4.51-3.78-4.51c-2.18,0-3.79,1.54-3.79,4.51c0,3.04,1.62,4.62,3.79,4.62
	C72.31,25.41,73.93,23.82,73.93,20.79z M88.08,28.64V11.42h8.21v16.16c0,3.99,1.07,5.24,3.44,5.24c2.06,0,3.33-0.87,4.93-3.05V11.42
	h8.21v27.72h-6.7l-0.59-3.85h-0.2c-2.31,2.76-4.92,4.52-8.7,4.52C90.65,39.82,88.08,35.57,88.08,28.64z M118.63,11.42h6.7l0.59,4.85
	h0.2c2.02-3.7,5.05-5.52,7.88-5.52c1.58,0,2.51,0.2,3.31,0.56l-1.37,7.09c-0.99-0.24-1.8-0.45-2.99-0.45
	c-2.09,0-4.63,1.35-6.11,5.13v16.07h-8.21V11.42z M137.86,25.3c0-8.99,6.42-14.54,13.08-14.54c7.9,0,11.81,5.74,11.81,13.31
	c0,1.48-0.18,2.96-0.34,3.63h-16.59c0.74,4.02,3.49,5.87,7.19,5.87c2.1,0,3.98-0.64,5.99-1.81l2.72,4.95
	c-2.84,1.97-6.55,3.12-9.84,3.12C143.98,39.82,137.86,34.47,137.86,25.3z M155.73,22.26c0-3.05-1.33-5.24-4.61-5.24
	c-2.6,0-4.84,1.74-5.4,5.24H155.73z M165.41,31.46c0-5.84,4.65-9,15.61-10.16c-0.16-2.42-1.37-4.01-4.38-4.01
	c-2.33,0-4.65,0.98-7.34,2.5l-2.92-5.39c3.52-2.15,7.48-3.65,11.84-3.65c7.09,0,11.01,4.05,11.01,12.54v15.85h-6.7l-0.59-2.84h-0.2
	c-2.33,2.05-4.95,3.51-8.07,3.51C168.62,39.82,165.41,36.13,165.41,31.46z M193.26,25.3c0-9.07,5.66-14.54,11.5-14.54
	c3.06,0,4.92,1.14,6.8,2.89l-0.3-4.2V0h8.21v39.15h-6.7l-0.59-2.75h-0.2c-1.96,1.96-4.7,3.42-7.38,3.42
	C197.71,39.82,193.26,34.35,193.26,25.3z M211.26,30.61V19.23c-1.45-1.3-3.08-1.75-4.59-1.75c-2.66,0-4.99,2.46-4.99,7.73
	c0,5.44,1.88,7.89,5.06,7.89C208.48,33.1,209.9,32.43,211.26,30.61z M0,31.53c0-5.84,4.65-9,15.61-10.16
	c-0.16-2.42-1.37-4.01-4.38-4.01c-2.33,0-4.65,0.98-7.34,2.5l-2.92-5.39c3.52-2.15,7.48-3.65,11.84-3.65
	c7.09,0,11.01,4.05,11.01,12.54v15.85h-6.7l-0.59-2.84h-0.2c-2.33,2.05-4.95,3.51-8.07,3.51C3.21,39.89,0,36.2,0,31.53z
	 M15.61,31.17v-4.84c-5.84,0.79-7.75,2.46-7.75,4.55c0,1.79,1.23,2.66,3.18,2.66C12.91,33.54,14.15,32.62,15.61,31.17z"/>
<path class="st1" d="M173.28,22.76c2.12-0.65,4.68-1.14,7.75-1.47v11.98l-3.87-1.86l-3.87,1.86V22.76z M181.02,21.3v-0.04h-0.01
	C181.02,21.27,181.02,21.29,181.02,21.3z"/>
</svg>
